<?xml version="1.0" encoding="UTF-8"?> <svg xmlns="http://www.w3.org/2000/svg" xmlns:xlink="http://www.w3.org/1999/xlink" width="260" zoomAndPan="magnify" viewBox="0 0 194.87999 39.749999" height="53" preserveAspectRatio="xMidYMid meet" version="1.0"><defs><g></g><clipPath id="0b799ac1f1"><path d="M 28 18 L 34.816406 18 L 34.816406 28 L 28 28 Z M 28 18 " clip-rule="nonzero"></path></clipPath><clipPath id="3823613877"><path d="M 0.550781 1 L 32 1 L 32 38.757812 L 0.550781 38.757812 Z M 0.550781 1 " clip-rule="nonzero"></path></clipPath></defs><g clip-path="url(#0b799ac1f1)"><path fill="#ffffff" d="M 35.140625 27.464844 C 35.089844 26.609375 35.042969 25.753906 34.992188 24.898438 C 34.953125 24.1875 34.90625 23.460938 34.664062 22.792969 C 34.316406 21.847656 33.59375 21.082031 33.226562 20.144531 C 33.019531 19.613281 32.871094 18.964844 32.339844 18.660156 C 31.734375 18.3125 30.933594 18.527344 30.277344 18.351562 C 30.214844 18.335938 30.078125 18.300781 29.90625 18.246094 C 29.949219 18.601562 29.941406 18.988281 29.816406 19.355469 L 28.847656 20.269531 C 29.660156 20.039062 30.503906 19.960938 31.230469 20.320312 C 31.742188 20.570312 32.164062 20.972656 32.523438 21.417969 C 32.753906 21.703125 32.964844 22.011719 33.085938 22.363281 C 33.261719 22.867188 33.191406 23.292969 33.441406 23.765625 C 33.53125 23.933594 34.085938 24.503906 33.921875 24.714844 C 33.753906 24.929688 33.113281 25.351562 33.128906 25.503906 C 33.144531 25.652344 33.566406 26.648438 33.566406 26.648438 C 33.753906 27.023438 34.5625 27.433594 34.9375 27.617188 C 34.984375 27.640625 35.035156 27.660156 35.078125 27.640625 C 35.136719 27.609375 35.144531 27.53125 35.140625 27.464844 " fill-opacity="1" fill-rule="nonzero"></path></g><path fill="#ffffff" d="M 15.667969 8.65625 C 15.753906 8.917969 15.84375 9.175781 15.9375 9.429688 C 17.597656 10.414062 18.839844 11.558594 19.652344 12.445312 C 19.808594 12.53125 19.957031 12.617188 20.101562 12.703125 C 20.578125 12.257812 21.367188 11.992188 21.058594 11.765625 C 20.65625 11.476562 19.992188 12.210938 19.992188 12.210938 C 20.117188 11.519531 21.613281 11.15625 21.351562 10.808594 C 21.085938 10.464844 20.226562 11.199219 20.226562 11.199219 C 20.683594 10.296875 21.488281 10.492188 21.320312 10.117188 C 21.15625 9.746094 20.226562 10.242188 20.226562 10.242188 C 20.449219 9.746094 22.179688 9.410156 21.875 9.175781 C 21.824219 9.136719 21.769531 9.113281 21.710938 9.109375 C 21.628906 9.226562 21.574219 9.289062 21.574219 9.289062 C 21.570312 9.230469 21.566406 9.171875 21.566406 9.117188 C 21.339844 9.164062 21.128906 9.355469 21.113281 9.367188 C 21.214844 9.183594 21.375 9.03125 21.554688 8.902344 C 21.339844 5.21875 20.171875 4.257812 20.171875 4.257812 C 21.160156 7.152344 20.125 7.53125 20.125 7.53125 C 19.398438 3.425781 16.800781 1.710938 16.800781 1.710938 C 18.046875 3.289062 18.039062 5.441406 18.039062 5.441406 C 14.742188 0.519531 12.429688 0.757812 12.429688 0.757812 C 13.648438 1.511719 14.753906 3.390625 14.753906 3.390625 C 11.207031 0 8.019531 0.996094 8.019531 0.996094 C 8.019531 0.996094 13.597656 2.257812 15.667969 8.65625 " fill-opacity="1" fill-rule="nonzero"></path><path fill="#ffffff" d="M 22.488281 7.355469 C 22.417969 7.414062 22.351562 7.480469 22.304688 7.53125 C 22.289062 7.628906 22.273438 7.722656 22.253906 7.816406 C 22.355469 7.746094 22.453125 7.683594 22.546875 7.628906 C 22.527344 7.53125 22.507812 7.441406 22.488281 7.355469 " fill-opacity="1" fill-rule="nonzero"></path><path fill="#ffffff" d="M 21.042969 12.765625 C 20.945312 12.453125 20.578125 12.601562 20.265625 12.800781 C 20.46875 12.921875 20.664062 13.042969 20.851562 13.167969 C 21.007812 13.054688 21.097656 12.925781 21.042969 12.765625 " fill-opacity="1" fill-rule="nonzero"></path><path fill="#ffffff" d="M 22.441406 7.15625 C 22.382812 6.917969 22.335938 6.777344 22.335938 6.777344 C 22.347656 6.976562 22.34375 7.164062 22.328125 7.339844 C 22.359375 7.273438 22.398438 7.214844 22.441406 7.15625 " fill-opacity="1" fill-rule="nonzero"></path><path fill="#ffffff" d="M 22.417969 8.210938 C 22.363281 8.125 22.273438 8.113281 22.171875 8.140625 C 22.113281 8.328125 22.046875 8.492188 21.980469 8.636719 C 22.273438 8.46875 22.5 8.34375 22.417969 8.210938 " fill-opacity="1" fill-rule="nonzero"></path><path fill="#ffffff" d="M 20.847656 37.273438 C 21.003906 37.386719 22.042969 37.460938 22.355469 37.4375 C 22.667969 37.417969 21.710938 36.285156 21.542969 36.210938 C 21.378906 36.140625 19.132812 33.757812 18.632812 32.386719 C 18.300781 31.46875 18.550781 30.683594 18.960938 29.855469 C 19.429688 28.902344 19.507812 27.867188 19.761719 26.851562 C 19.886719 26.355469 19.953125 25.625 19.839844 25.128906 C 18.714844 25.394531 17.765625 25.5 17.25 25.539062 C 17.167969 26.082031 16.980469 26.582031 16.804688 26.964844 C 16.804688 26.96875 16.804688 26.96875 16.804688 26.96875 C 16.796875 26.984375 16.792969 26.996094 16.785156 27.011719 C 16.78125 27.023438 16.773438 27.035156 16.769531 27.050781 C 16.765625 27.054688 16.761719 27.058594 16.761719 27.066406 C 16.695312 27.199219 16.636719 27.316406 16.582031 27.414062 C 16.648438 27.347656 16.703125 27.339844 16.742188 27.398438 C 16.746094 27.402344 16.746094 27.40625 16.75 27.410156 C 16.894531 27.667969 17.128906 29.449219 16.660156 30.390625 C 16.179688 31.347656 16.453125 31.515625 16.597656 31.597656 C 16.742188 31.679688 19.421875 35.296875 19.609375 36.003906 C 19.609375 36.003906 19.671875 36.328125 19.921875 36.265625 C 20.171875 36.203125 20.515625 36.148438 20.523438 36.234375 C 20.535156 36.316406 20.589844 36.335938 20.609375 36.367188 C 20.628906 36.398438 20.628906 36.636719 20.597656 36.792969 C 20.566406 36.949219 20.691406 37.160156 20.847656 37.273438 " fill-opacity="1" fill-rule="nonzero"></path><g clip-path="url(#3823613877)"><path fill="#fecc57" d="M 21.042969 12.765625 C 21.097656 12.925781 21.007812 13.054688 20.851562 13.167969 C 20.664062 13.042969 20.46875 12.921875 20.265625 12.800781 C 20.578125 12.601562 20.945312 12.453125 21.042969 12.765625 Z M 11.605469 22.480469 C 9.347656 23.25 7.730469 24.644531 6.980469 27.0625 C 5.960938 30.339844 4.335938 33.882812 0.53125 34.5 C 0.53125 34.5 2.296875 34.503906 3.34375 33.789062 C 3.34375 33.789062 2.808594 34.679688 1.8125 34.75 C 1.8125 34.75 3.484375 34.898438 4.042969 33.789062 C 4.042969 33.789062 4.085938 35.121094 2.671875 35.609375 C 2.671875 35.609375 4.992188 34.980469 5.480469 33.144531 C 5.480469 33.144531 5.785156 33.929688 4.96875 35.210938 C 4.96875 35.210938 6.527344 34.050781 6.804688 32.65625 C 6.804688 32.65625 6.898438 34.027344 6.339844 34.796875 C 6.339844 34.796875 8.128906 33.03125 8.269531 31.285156 C 8.269531 31.285156 8.757812 32.378906 8.386719 33.285156 C 8.386719 33.285156 9.488281 32.03125 9.488281 30.347656 C 9.488281 30.347656 9.78125 30.996094 9.722656 31.578125 C 9.722656 31.578125 10.816406 29.28125 10.726562 28.289062 C 10.726562 28.289062 10.957031 28.445312 10.957031 28.675781 C 10.957031 28.675781 11.191406 27.996094 11.066406 27.40625 C 10.941406 26.816406 11.3125 26.832031 11.3125 26.832031 C 11.3125 26.832031 11.5625 26.804688 11.296875 26.058594 C 11.070312 25.414062 11.097656 24.519531 11.375 23.941406 C 11.375 23.972656 11.371094 24 11.371094 24.03125 C 11.316406 28.660156 14.171875 27.46875 13.78125 29.378906 C 13.394531 31.292969 12.703125 31.679688 12.8125 32.011719 C 12.925781 32.347656 14.308594 35.535156 14.394531 36.53125 C 14.394531 36.53125 14.402344 37.085938 14.527344 37.117188 C 14.652344 37.148438 14.996094 37.105469 15.109375 37.242188 C 15.226562 37.375 15.191406 37.730469 15.140625 37.875 C 15.089844 38.019531 15.214844 38.40625 15.421875 38.46875 C 15.628906 38.53125 16.917969 38.582031 17.035156 38.5625 C 17.148438 38.539062 17.117188 38.207031 16.949219 38.042969 C 16.785156 37.875 14.101562 34.945312 14.683594 32.78125 C 15.265625 30.621094 15.765625 30.496094 16.015625 29.144531 C 16.132812 28.496094 16.273438 28.019531 16.402344 27.722656 C 16.464844 27.574219 16.527344 27.472656 16.582031 27.414062 C 16.636719 27.316406 16.695312 27.199219 16.761719 27.066406 C 16.761719 27.058594 16.765625 27.054688 16.769531 27.050781 C 16.773438 27.035156 16.78125 27.023438 16.785156 27.011719 C 16.792969 26.996094 16.796875 26.984375 16.804688 26.96875 C 16.804688 26.96875 16.804688 26.96875 16.804688 26.964844 C 16.980469 26.582031 17.164062 26.082031 17.25 25.539062 C 17.765625 25.5 18.714844 25.394531 19.839844 25.128906 C 21.273438 24.789062 22.988281 24.191406 24.4375 23.140625 C 24.914062 22.824219 25.347656 22.453125 25.699219 22.015625 C 25.699219 22.015625 25.800781 21.996094 25.972656 21.957031 C 26.945312 22.289062 27.921875 22.773438 28.351562 23.671875 C 28.597656 24.1875 28.683594 24.765625 28.691406 25.332031 C 28.695312 25.703125 28.671875 26.074219 28.550781 26.425781 C 28.375 26.929688 28.054688 27.21875 27.960938 27.75 C 27.929688 27.9375 28.011719 28.726562 27.753906 28.789062 C 27.488281 28.859375 26.722656 28.792969 26.644531 28.921875 C 26.5625 29.046875 26.28125 30.089844 26.28125 30.089844 C 26.195312 30.503906 26.578125 31.324219 26.757812 31.703125 C 26.78125 31.746094 26.808594 31.796875 26.855469 31.804688 C 26.921875 31.820312 26.972656 31.757812 27.011719 31.707031 C 27.5 31.003906 27.992188 30.300781 28.480469 29.597656 C 28.890625 29.011719 29.304688 28.414062 29.523438 27.734375 C 29.835938 26.78125 29.742188 25.730469 30.03125 24.769531 C 30.195312 24.222656 30.476562 23.617188 30.25 23.050781 C 29.988281 22.402344 29.226562 22.078125 28.820312 21.539062 C 28.746094 21.441406 28.507812 21.121094 28.300781 20.78125 L 28.847656 20.269531 L 29.816406 19.355469 C 29.941406 18.988281 29.949219 18.601562 29.90625 18.246094 C 29.808594 17.484375 29.464844 16.859375 29.464844 16.859375 C 29.253906 16.714844 29.546875 16.339844 28.175781 14.59375 C 26.804688 12.847656 27.917969 10.1875 27.917969 10.1875 C 27.917969 10.1875 29.027344 11.28125 29.011719 11.601562 C 29 11.917969 29.261719 12.558594 29.636719 12.640625 C 30.011719 12.722656 30.246094 12.863281 30.414062 12.640625 C 30.578125 12.417969 30.855469 12.015625 30.996094 11.960938 C 31.132812 11.90625 31.246094 11.242188 31.066406 11.074219 C 30.882812 10.910156 30.191406 8.691406 30.550781 8.023438 C 30.910156 7.359375 31.007812 7.097656 30.605469 6.707031 C 30.203125 6.320312 30.136719 5.960938 30.191406 5.710938 C 30.246094 5.460938 31.121094 4.851562 30.691406 4.046875 L 29.75 5.089844 C 29.75 5.089844 29.375 4.808594 29.25 4.863281 C 29.25 4.863281 29.25 3.773438 29.332031 3.660156 C 29.308594 3.671875 28.570312 4.035156 28.488281 5.046875 C 28.488281 5.046875 27.308594 3.867188 26.089844 4.1875 C 26.089844 4.1875 26.949219 4.394531 26.867188 4.644531 C 26.78125 4.894531 24.910156 4.144531 24.566406 4.546875 C 24.566406 4.546875 25.492188 4.644531 25.4375 4.949219 C 25.382812 5.253906 23.679688 4.671875 23.25 5.488281 C 23.25 5.488281 24.453125 5.074219 24.511719 5.421875 C 24.566406 5.765625 23.164062 5.726562 22.792969 6.417969 C 22.792969 6.417969 23.414062 6.003906 23.832031 6.152344 C 24.183594 6.28125 22.980469 6.421875 22.441406 7.15625 C 22.398438 7.214844 22.359375 7.273438 22.328125 7.339844 C 22.28125 7.429688 22.246094 7.523438 22.222656 7.625 C 22.222656 7.625 22.253906 7.585938 22.304688 7.53125 C 22.351562 7.480469 22.417969 7.414062 22.488281 7.355469 C 22.625 7.246094 22.785156 7.160156 22.886719 7.261719 C 22.980469 7.359375 22.800781 7.472656 22.546875 7.628906 C 22.453125 7.683594 22.355469 7.746094 22.253906 7.816406 C 22.015625 7.976562 21.78125 8.175781 21.675781 8.425781 C 21.691406 8.410156 21.953125 8.195312 22.171875 8.140625 C 22.273438 8.113281 22.363281 8.125 22.417969 8.210938 C 22.5 8.34375 22.273438 8.46875 21.980469 8.636719 C 21.84375 8.714844 21.695312 8.800781 21.554688 8.902344 C 21.375 9.03125 21.214844 9.183594 21.113281 9.367188 C 21.128906 9.355469 21.339844 9.164062 21.566406 9.117188 C 21.613281 9.105469 21.664062 9.101562 21.710938 9.109375 C 21.769531 9.113281 21.824219 9.136719 21.875 9.175781 C 22.179688 9.410156 20.449219 9.746094 20.226562 10.242188 C 20.226562 10.242188 21.15625 9.746094 21.320312 10.117188 C 21.488281 10.492188 20.683594 10.296875 20.226562 11.199219 C 20.226562 11.199219 21.085938 10.464844 21.351562 10.808594 C 21.613281 11.15625 20.117188 11.519531 19.992188 12.210938 C 19.992188 12.210938 20.65625 11.476562 21.058594 11.765625 C 21.367188 11.992188 20.578125 12.257812 20.101562 12.703125 C 19.957031 12.617188 19.808594 12.53125 19.652344 12.445312 C 18.839844 11.558594 17.597656 10.414062 15.9375 9.429688 C 14.835938 8.773438 13.550781 8.191406 12.078125 7.804688 C 6.261719 6.273438 4.871094 1.40625 4.871094 1.40625 C 4.871094 1.40625 4.128906 4.265625 7.324219 7.246094 C 7.324219 7.246094 5.59375 6.355469 4.863281 5.3125 C 4.863281 5.3125 4.800781 6.5 6.78125 8.25 C 3.660156 6.328125 2.433594 3.667969 2.433594 3.667969 C 2.433594 3.667969 2.09375 7.316406 6.542969 10.347656 C 6.542969 10.347656 4.277344 9.589844 3.1875 8.453125 C 3.1875 8.453125 3.460938 10.988281 9.496094 13.398438 C 9.496094 13.398438 7.1875 13.902344 5.210938 12.925781 C 5.210938 12.925781 7.644531 15.320312 12.214844 15.15625 C 12.214844 15.15625 12.046875 16.355469 8.71875 15.960938 C 8.71875 15.960938 10.105469 17.0625 14.433594 16.308594 C 14.433594 16.308594 13.628906 17.425781 11.914062 17.703125 C 11.914062 17.703125 14.359375 17.949219 15.960938 17.066406 C 16.738281 16.636719 17.734375 16.824219 18.5625 17.132812 C 18.472656 17.183594 18.378906 17.226562 18.285156 17.269531 C 16.8125 17.914062 12.636719 19.074219 11.605469 22.480469 " fill-opacity="1" fill-rule="nonzero"></path></g><g fill="#ffffff" fill-opacity="1"><g transform="translate(44.568916, 22.011342)"><g><path d="M 9.65625 -4.0625 L 13.5625 -15.296875 L 11.8125 -15.296875 L 11.8125 -15.71875 L 15.25 -15.71875 L 15.25 -15.296875 L 14.1875 -15.296875 L 8.78125 0.21875 L 6.890625 0.21875 L 1.171875 -15.296875 L 0.140625 -15.296875 L 0.140625 -15.71875 L 7.484375 -15.71875 L 7.484375 -15.296875 L 5.875 -15.296875 Z M 9.65625 -4.0625 "></path></g></g></g><g fill="#ffffff" fill-opacity="1"><g transform="translate(66.678173, 22.011342)"><g><path d="M 0.46875 -15.71875 L 12.140625 -15.71875 L 12.375 -11.265625 L 11.96875 -11.265625 C 11.34375 -12.785156 10.679688 -13.820312 9.984375 -14.375 C 9.296875 -14.9375 8.285156 -15.21875 6.953125 -15.21875 L 6.171875 -15.21875 L 6.171875 -8.28125 L 6.9375 -8.28125 C 7.644531 -8.28125 8.238281 -8.546875 8.71875 -9.078125 C 9.195312 -9.609375 9.53125 -10.320312 9.71875 -11.21875 L 10.0625 -11.21875 L 10.0625 -4.578125 L 9.671875 -4.578125 C 9.398438 -5.703125 9.035156 -6.503906 8.578125 -6.984375 C 8.128906 -7.460938 7.507812 -7.703125 6.71875 -7.703125 L 6.171875 -7.703125 L 6.171875 -0.5 L 7.03125 -0.5 C 8.40625 -0.5 9.570312 -0.910156 10.53125 -1.734375 C 11.5 -2.554688 12.164062 -3.609375 12.53125 -4.890625 L 12.984375 -4.890625 L 12.796875 0 L 0.46875 0 L 0.46875 -0.5 L 1.796875 -0.5 L 1.796875 -15.21875 L 0.46875 -15.21875 Z M 0.46875 -15.71875 "></path></g></g></g><g fill="#ffffff" fill-opacity="1"><g transform="translate(87.418422, 22.011342)"><g><path d="M 7.359375 -7.953125 L 6.171875 -7.953125 L 6.171875 -0.421875 L 7.640625 -0.421875 L 7.640625 0 L 0.34375 0 L 0.34375 -0.421875 L 1.796875 -0.421875 L 1.796875 -15.296875 L 0.34375 -15.296875 L 0.34375 -15.71875 L 7.125 -15.71875 C 9.0625 -15.71875 10.4375 -15.613281 11.25 -15.40625 C 12.070312 -15.207031 12.648438 -14.96875 12.984375 -14.6875 C 13.703125 -14.101562 14.0625 -13.171875 14.0625 -11.890625 C 14.0625 -10.617188 13.742188 -9.710938 13.109375 -9.171875 C 12.484375 -8.628906 11.523438 -8.304688 10.234375 -8.203125 L 10.234375 -8.125 C 11.453125 -7.957031 12.300781 -7.597656 12.78125 -7.046875 C 13.257812 -6.492188 13.5 -5.566406 13.5 -4.265625 L 13.5 -3.078125 C 13.5 -2.296875 13.535156 -1.769531 13.609375 -1.5 C 13.691406 -1.226562 13.867188 -1.09375 14.140625 -1.09375 C 14.410156 -1.09375 14.625 -1.21875 14.78125 -1.46875 C 14.9375 -1.71875 15.082031 -2.238281 15.21875 -3.03125 L 15.609375 -2.984375 C 15.441406 -1.710938 15.148438 -0.859375 14.734375 -0.421875 C 14.328125 0.00390625 13.507812 0.21875 12.28125 0.21875 C 11.050781 0.21875 10.175781 -0.0664062 9.65625 -0.640625 C 9.144531 -1.210938 8.890625 -2.296875 8.890625 -3.890625 L 8.890625 -5.53125 C 8.890625 -6.363281 8.78125 -6.972656 8.5625 -7.359375 C 8.34375 -7.753906 7.941406 -7.953125 7.359375 -7.953125 Z M 6.171875 -15.296875 L 6.171875 -8.375 L 6.890625 -8.375 C 7.742188 -8.375 8.375 -8.632812 8.78125 -9.15625 C 9.195312 -9.6875 9.40625 -10.539062 9.40625 -11.71875 L 9.40625 -12.375 C 9.40625 -13.550781 9.207031 -14.332031 8.8125 -14.71875 C 8.414062 -15.101562 7.785156 -15.296875 6.921875 -15.296875 Z M 6.171875 -15.296875 "></path></g></g></g><g fill="#ffffff" fill-opacity="1"><g transform="translate(110.223398, 22.011342)"><g><path d="M 16.03125 -8.125 C 16.03125 -5.039062 15.160156 -2.894531 13.421875 -1.6875 C 11.828125 -0.5625 9.628906 0 6.828125 0 L 0.46875 0 L 0.46875 -0.421875 L 1.953125 -0.421875 L 1.953125 -15.296875 L 0.46875 -15.296875 L 0.46875 -15.71875 L 7.40625 -15.71875 C 10.28125 -15.71875 12.4375 -15.128906 13.875 -13.953125 C 15.3125 -12.773438 16.03125 -10.832031 16.03125 -8.125 Z M 6.328125 -0.421875 L 7.1875 -0.421875 C 8.695312 -0.421875 9.773438 -0.957031 10.421875 -2.03125 C 11.078125 -3.101562 11.40625 -4.894531 11.40625 -7.40625 L 11.40625 -8.71875 C 11.40625 -12.082031 10.757812 -14.109375 9.46875 -14.796875 C 8.851562 -15.128906 7.988281 -15.296875 6.875 -15.296875 L 6.328125 -15.296875 Z M 6.328125 -0.421875 "></path></g></g></g><g fill="#ffffff" fill-opacity="1"><g transform="translate(133.903641, 22.011342)"><g><path d="M 9.703125 -0.421875 L 8.0625 -5.28125 L 3.609375 -5.28125 L 1.890625 -0.421875 L 3.5625 -0.421875 L 3.5625 0 L 0.140625 0 L 0.140625 -0.421875 L 1.1875 -0.421875 L 6.921875 -15.859375 L 8.75 -15.859375 L 14.421875 -0.421875 L 15.453125 -0.421875 L 15.453125 0 L 8.109375 0 L 8.109375 -0.421875 Z M 5.921875 -11.65625 L 3.8125 -5.765625 L 7.875 -5.765625 Z M 5.921875 -11.65625 "></path></g></g></g><g fill="#ffffff" fill-opacity="1"><g transform="translate(156.214876, 22.011342)"><g><path d="M 13.25 -15.296875 L 13.25 0 L 10.109375 0 L 2.40625 -14.53125 L 2.40625 -0.421875 L 3.640625 -0.421875 L 3.640625 0 L 0.5625 0 L 0.5625 -0.421875 L 1.796875 -0.421875 L 1.796875 -15.296875 L 0.5625 -15.296875 L 0.5625 -15.71875 L 6.765625 -15.71875 L 12.640625 -4.453125 L 12.640625 -15.296875 L 11.40625 -15.296875 L 11.40625 -15.71875 L 14.484375 -15.71875 L 14.484375 -15.296875 Z M 13.25 -15.296875 "></path></g></g></g><g fill="#ffffff" fill-opacity="1"><g transform="translate(177.987489, 22.011342)"><g><path d="M 14.28125 -15.71875 L 14.5 -10.078125 L 14.078125 -10.078125 C 13.421875 -12.066406 12.835938 -13.425781 12.328125 -14.15625 C 11.816406 -14.882812 11.082031 -15.25 10.125 -15.25 L 9.859375 -15.25 L 9.859375 -0.46875 L 11.765625 -0.46875 L 11.765625 0 L 3.5625 0 L 3.5625 -0.46875 L 5.484375 -0.46875 L 5.484375 -15.25 L 5.1875 -15.25 C 4.226562 -15.25 3.484375 -14.867188 2.953125 -14.109375 C 2.429688 -13.359375 1.859375 -12.015625 1.234375 -10.078125 L 0.8125 -10.078125 L 1.03125 -15.71875 Z M 14.28125 -15.71875 "></path></g></g></g><g fill="#fecc57" fill-opacity="1"><g transform="translate(44.568916, 36.460958)"><g><path d="M 7.296875 -2.46875 L 2.15625 -2.46875 L 1.046875 0 L 0.03125 0 L 4.25 -9.25 L 5.21875 -9.25 L 9.4375 0 L 8.40625 0 Z M 6.9375 -3.265625 L 4.734375 -8.21875 L 2.515625 -3.265625 Z M 6.9375 -3.265625 "></path></g></g></g><g fill="#fecc57" fill-opacity="1"><g transform="translate(64.604942, 36.460958)"><g><path d="M 5.234375 0.078125 C 4.035156 0.078125 3.097656 -0.265625 2.421875 -0.953125 C 1.753906 -1.640625 1.421875 -2.640625 1.421875 -3.953125 L 1.421875 -9.25 L 2.40625 -9.25 L 2.40625 -3.984375 C 2.40625 -2.910156 2.644531 -2.109375 3.125 -1.578125 C 3.613281 -1.054688 4.316406 -0.796875 5.234375 -0.796875 C 6.148438 -0.796875 6.847656 -1.054688 7.328125 -1.578125 C 7.816406 -2.109375 8.0625 -2.910156 8.0625 -3.984375 L 8.0625 -9.25 L 9.015625 -9.25 L 9.015625 -3.953125 C 9.015625 -2.640625 8.679688 -1.640625 8.015625 -0.953125 C 7.359375 -0.265625 6.429688 0.078125 5.234375 0.078125 Z M 5.234375 0.078125 "></path></g></g></g><g fill="#fecc57" fill-opacity="1"><g transform="translate(85.63155, 36.460958)"><g><path d="M 3.296875 -8.390625 L 0.046875 -8.390625 L 0.046875 -9.25 L 7.53125 -9.25 L 7.53125 -8.390625 L 4.28125 -8.390625 L 4.28125 0 L 3.296875 0 Z M 3.296875 -8.390625 "></path></g></g></g><g fill="#fecc57" fill-opacity="1"><g transform="translate(103.778869, 36.460958)"><g><path d="M 5.546875 0.078125 C 4.628906 0.078125 3.796875 -0.125 3.046875 -0.53125 C 2.304688 -0.945312 1.726562 -1.507812 1.3125 -2.21875 C 0.894531 -2.925781 0.6875 -3.726562 0.6875 -4.625 C 0.6875 -5.507812 0.894531 -6.304688 1.3125 -7.015625 C 1.726562 -7.734375 2.304688 -8.296875 3.046875 -8.703125 C 3.796875 -9.117188 4.628906 -9.328125 5.546875 -9.328125 C 6.460938 -9.328125 7.285156 -9.125 8.015625 -8.71875 C 8.753906 -8.3125 9.332031 -7.75 9.75 -7.03125 C 10.175781 -6.3125 10.390625 -5.507812 10.390625 -4.625 C 10.390625 -3.726562 10.175781 -2.921875 9.75 -2.203125 C 9.332031 -1.492188 8.753906 -0.9375 8.015625 -0.53125 C 7.285156 -0.125 6.460938 0.078125 5.546875 0.078125 Z M 5.546875 -0.796875 C 6.273438 -0.796875 6.929688 -0.957031 7.515625 -1.28125 C 8.109375 -1.613281 8.570312 -2.070312 8.90625 -2.65625 C 9.238281 -3.238281 9.40625 -3.894531 9.40625 -4.625 C 9.40625 -5.34375 9.238281 -5.992188 8.90625 -6.578125 C 8.570312 -7.160156 8.109375 -7.617188 7.515625 -7.953125 C 6.929688 -8.285156 6.273438 -8.453125 5.546875 -8.453125 C 4.816406 -8.453125 4.15625 -8.285156 3.5625 -7.953125 C 2.96875 -7.617188 2.5 -7.160156 2.15625 -6.578125 C 1.820312 -5.992188 1.65625 -5.34375 1.65625 -4.625 C 1.65625 -3.894531 1.820312 -3.238281 2.15625 -2.65625 C 2.5 -2.070312 2.96875 -1.613281 3.5625 -1.28125 C 4.15625 -0.957031 4.816406 -0.796875 5.546875 -0.796875 Z M 5.546875 -0.796875 "></path></g></g></g><g fill="#fecc57" fill-opacity="1"><g transform="translate(125.426228, 36.460958)"><g><path d="M 7.328125 -4.765625 C 7.929688 -4.628906 8.398438 -4.363281 8.734375 -3.96875 C 9.066406 -3.582031 9.234375 -3.082031 9.234375 -2.46875 C 9.234375 -1.675781 8.9375 -1.066406 8.34375 -0.640625 C 7.757812 -0.210938 6.894531 0 5.75 0 L 1.5 0 L 1.5 -9.25 L 5.5 -9.25 C 6.519531 -9.25 7.3125 -9.039062 7.875 -8.625 C 8.445312 -8.207031 8.734375 -7.617188 8.734375 -6.859375 C 8.734375 -6.347656 8.609375 -5.914062 8.359375 -5.5625 C 8.109375 -5.207031 7.765625 -4.941406 7.328125 -4.765625 Z M 2.484375 -8.4375 L 2.484375 -5.078125 L 5.421875 -5.078125 C 6.171875 -5.078125 6.75 -5.21875 7.15625 -5.5 C 7.5625 -5.789062 7.765625 -6.210938 7.765625 -6.765625 C 7.765625 -7.304688 7.5625 -7.71875 7.15625 -8 C 6.75 -8.289062 6.171875 -8.4375 5.421875 -8.4375 Z M 5.75 -0.8125 C 6.570312 -0.8125 7.191406 -0.953125 7.609375 -1.234375 C 8.035156 -1.515625 8.25 -1.953125 8.25 -2.546875 C 8.25 -3.703125 7.414062 -4.28125 5.75 -4.28125 L 2.484375 -4.28125 L 2.484375 -0.8125 Z M 5.75 -0.8125 "></path></g></g></g><g fill="#fecc57" fill-opacity="1"><g transform="translate(145.950935, 36.460958)"><g><path d="M 5.546875 0.078125 C 4.628906 0.078125 3.796875 -0.125 3.046875 -0.53125 C 2.304688 -0.945312 1.726562 -1.507812 1.3125 -2.21875 C 0.894531 -2.925781 0.6875 -3.726562 0.6875 -4.625 C 0.6875 -5.507812 0.894531 -6.304688 1.3125 -7.015625 C 1.726562 -7.734375 2.304688 -8.296875 3.046875 -8.703125 C 3.796875 -9.117188 4.628906 -9.328125 5.546875 -9.328125 C 6.460938 -9.328125 7.285156 -9.125 8.015625 -8.71875 C 8.753906 -8.3125 9.332031 -7.75 9.75 -7.03125 C 10.175781 -6.3125 10.390625 -5.507812 10.390625 -4.625 C 10.390625 -3.726562 10.175781 -2.921875 9.75 -2.203125 C 9.332031 -1.492188 8.753906 -0.9375 8.015625 -0.53125 C 7.285156 -0.125 6.460938 0.078125 5.546875 0.078125 Z M 5.546875 -0.796875 C 6.273438 -0.796875 6.929688 -0.957031 7.515625 -1.28125 C 8.109375 -1.613281 8.570312 -2.070312 8.90625 -2.65625 C 9.238281 -3.238281 9.40625 -3.894531 9.40625 -4.625 C 9.40625 -5.34375 9.238281 -5.992188 8.90625 -6.578125 C 8.570312 -7.160156 8.109375 -7.617188 7.515625 -7.953125 C 6.929688 -8.285156 6.273438 -8.453125 5.546875 -8.453125 C 4.816406 -8.453125 4.15625 -8.285156 3.5625 -7.953125 C 2.96875 -7.617188 2.5 -7.160156 2.15625 -6.578125 C 1.820312 -5.992188 1.65625 -5.34375 1.65625 -4.625 C 1.65625 -3.894531 1.820312 -3.238281 2.15625 -2.65625 C 2.5 -2.070312 2.96875 -1.613281 3.5625 -1.28125 C 4.15625 -0.957031 4.816406 -0.796875 5.546875 -0.796875 Z M 5.546875 -0.796875 "></path></g></g></g><g fill="#fecc57" fill-opacity="1"><g transform="translate(167.598293, 36.460958)"><g><path d="M 3.296875 -8.390625 L 0.046875 -8.390625 L 0.046875 -9.25 L 7.53125 -9.25 L 7.53125 -8.390625 L 4.28125 -8.390625 L 4.28125 0 L 3.296875 0 Z M 3.296875 -8.390625 "></path></g></g></g><g fill="#fecc57" fill-opacity="1"><g transform="translate(185.745608, 36.460958)"><g><path d="M 4.046875 0.078125 C 3.367188 0.078125 2.710938 -0.03125 2.078125 -0.25 C 1.453125 -0.46875 0.96875 -0.757812 0.625 -1.125 L 1 -1.875 C 1.332031 -1.539062 1.773438 -1.269531 2.328125 -1.0625 C 2.890625 -0.851562 3.460938 -0.75 4.046875 -0.75 C 4.878906 -0.75 5.5 -0.898438 5.90625 -1.203125 C 6.320312 -1.503906 6.53125 -1.898438 6.53125 -2.390625 C 6.53125 -2.753906 6.414062 -3.046875 6.1875 -3.265625 C 5.96875 -3.492188 5.695312 -3.664062 5.375 -3.78125 C 5.050781 -3.90625 4.597656 -4.035156 4.015625 -4.171875 C 3.316406 -4.347656 2.757812 -4.515625 2.34375 -4.671875 C 1.9375 -4.835938 1.582031 -5.085938 1.28125 -5.421875 C 0.988281 -5.753906 0.84375 -6.207031 0.84375 -6.78125 C 0.84375 -7.25 0.960938 -7.675781 1.203125 -8.0625 C 1.453125 -8.445312 1.832031 -8.753906 2.34375 -8.984375 C 2.851562 -9.210938 3.488281 -9.328125 4.25 -9.328125 C 4.78125 -9.328125 5.296875 -9.253906 5.796875 -9.109375 C 6.304688 -8.960938 6.742188 -8.757812 7.109375 -8.5 L 6.78125 -7.71875 C 6.394531 -7.976562 5.984375 -8.171875 5.546875 -8.296875 C 5.109375 -8.421875 4.675781 -8.484375 4.25 -8.484375 C 3.4375 -8.484375 2.828125 -8.328125 2.421875 -8.015625 C 2.015625 -7.703125 1.8125 -7.300781 1.8125 -6.8125 C 1.8125 -6.445312 1.921875 -6.148438 2.140625 -5.921875 C 2.367188 -5.691406 2.648438 -5.519531 2.984375 -5.40625 C 3.328125 -5.289062 3.785156 -5.160156 4.359375 -5.015625 C 5.035156 -4.847656 5.582031 -4.679688 6 -4.515625 C 6.414062 -4.359375 6.769531 -4.113281 7.0625 -3.78125 C 7.351562 -3.445312 7.5 -3 7.5 -2.4375 C 7.5 -1.976562 7.375 -1.554688 7.125 -1.171875 C 6.875 -0.785156 6.488281 -0.476562 5.96875 -0.25 C 5.445312 -0.03125 4.804688 0.078125 4.046875 0.078125 Z M 4.046875 0.078125 "></path></g></g></g></svg> 